<svg xmlns="http://www.w3.org/2000/svg" width="44" height="54" viewBox="0 0 44 54" role="img" aria-labelledby="title">
  <title id="title">Explore memory location pin</title>
  <defs>
    <filter id="pin-shadow" x="-25%" y="-18%" width="150%" height="145%" color-interpolation-filters="sRGB">
      <feDropShadow dx="0" dy="3" stdDeviation="2.2" flood-color="#3c4043" flood-opacity=".28"/>
    </filter>
    <linearGradient id="pin-fill" x1="22" x2="22" y1="2" y2="52" gradientUnits="userSpaceOnUse">
      <stop stop-color="#8477d6"/>
      <stop offset="1" stop-color="#5a4aa8"/>
    </linearGradient>
  </defs>
  <path d="M22 52S5 31.3 5 19C5 9.6 12.6 2 22 2s17 7.6 17 17c0 12.3-17 33-17 33Z" fill="url(#pin-fill)" filter="url(#pin-shadow)"/>
  <path d="M22 52S5 31.3 5 19C5 9.6 12.6 2 22 2s17 7.6 17 17c0 12.3-17 33-17 33Z" fill="none" stroke="#fff" stroke-linejoin="round" stroke-width="2"/>
  <circle cx="22" cy="19" r="12.8" fill="#fff"/>
  <circle cx="17" cy="12.5" r="4.2" fill="#fff" opacity=".45"/>
  <g transform="translate(10 7)">
    <circle cx="12" cy="12" r="10" fill="#f7b928"/>
    <circle cx="8.5" cy="10" r="1.4" fill="#4b2f13"/>
    <circle cx="15.5" cy="10" r="1.4" fill="#4b2f13"/>
    <ellipse cx="12" cy="15.5" rx="2.1" ry="2.7" fill="#4b2f13"/>
  </g>
</svg>
